<svg width="1600" height="420" viewBox="0 0 1600 420" fill="none" xmlns="http://www.w3.org/2000/svg">
  <rect width="1600" height="420" fill="transparent"/>
  <g fill="#244131">
    <path d="M72 420V344H20L86 248H42L112 150H78L139 64L200 150H166L236 248H192L258 344H206V420H72Z" opacity="0.34"/>
    <path d="M252 420V328H205L265 244H224L285 165H248L304 94L360 165H323L384 244H343L403 328H356V420H252Z" opacity="0.2"/>
    <path d="M438 420V352H389L453 261H411L477 171H442L500 92L558 171H523L589 261H547L611 352H562V420H438Z" opacity="0.3"/>
    <path d="M624 420V338H574L637 246H596L661 154H624L686 69L748 154H711L776 246H735L798 338H748V420H624Z" opacity="0.24"/>
    <path d="M798 420V360H753L812 276H774L833 192H800L853 117L906 192H873L932 276H894L953 360H908V420H798Z" opacity="0.32"/>
    <path d="M968 420V333H921L982 246H941L1002 159H966L1025 80L1084 159H1048L1109 246H1068L1129 333H1082V420H968Z" opacity="0.22"/>
    <path d="M1149 420V350H1100L1165 257H1122L1188 164H1151L1210 87L1269 164H1232L1298 257H1255L1320 350H1271V420H1149Z" opacity="0.34"/>
    <path d="M1328 420V329H1280L1342 240H1302L1363 151H1326L1383 73L1440 151H1403L1464 240H1424L1486 329H1438V420H1328Z" opacity="0.2"/>
    <path d="M1490 420V354H1448L1501 277H1467L1521 201H1491L1542 127L1593 201H1563L1617 277H1583L1636 354H1594V420H1490Z" opacity="0.28"/>
  </g>
</svg>
